<?xml version="1.0" encoding="UTF-8" standalone="no"?>
<svg
   xmlns:dc="http://purl.org/dc/elements/1.1/"
   xmlns:cc="http://creativecommons.org/ns#"
   xmlns:rdf="http://www.w3.org/1999/02/22-rdf-syntax-ns#"
   xmlns:svg="http://www.w3.org/2000/svg"
   xmlns="http://www.w3.org/2000/svg"
   xmlns:sodipodi="http://sodipodi.sourceforge.net/DTD/sodipodi-0.dtd"
   xmlns:inkscape="http://www.inkscape.org/namespaces/inkscape"
   height="1024"
   width="1024"
   id="svg4184"
   version="1.1"
   inkscape:version="0.91 r13725"
   sodipodi:docname="globe.svg"
   inkscape:export-filename="/home/toutenrab/Dev/_PRO/Skoli/CEDEJ/Atlas/public/images/globe-16x16.png"
   inkscape:export-xdpi="1.40625"
   inkscape:export-ydpi="1.40625">
  <metadata
     id="metadata4192">
    <rdf:RDF>
      <cc:Work
         rdf:about="">
        <dc:format>image/svg+xml</dc:format>
        <dc:type
           rdf:resource="http://purl.org/dc/dcmitype/StillImage" />
      </cc:Work>
    </rdf:RDF>
  </metadata>
  <defs
     id="defs4190" />
  <sodipodi:namedview
     pagecolor="#ffffff"
     bordercolor="#666666"
     borderopacity="1"
     objecttolerance="10"
     gridtolerance="10"
     guidetolerance="10"
     inkscape:pageopacity="0"
     inkscape:pageshadow="2"
     inkscape:window-width="1440"
     inkscape:window-height="882"
     id="namedview4188"
     showgrid="false"
     inkscape:zoom="1"
     inkscape:cx="390.15737"
     inkscape:cy="603.44115"
     inkscape:window-x="0"
     inkscape:window-y="18"
     inkscape:window-maximized="1"
     inkscape:current-layer="svg4184" />
  <path
     d="m 512,128 c -212.077,0 -384,171.923 -384,384 0,212.077 171.923,384 384,384 25.953,0 51.303,-2.582 75.812,-7.49 -9.879,-4.725 -10.957,-40.174 -1.188,-60.385 10.875,-22.5 45,-79.5 11.25,-98.625 -33.75,-19.125 -24.375,-27.75 -45,-49.875 -20.625,-22.125 -12.19,-25.451 -13.5,-31.125 -4.5,-19.5 19.875,-48.75 21,-51.75 1.125,-3 1.125,-14.25 0.75,-17.625 -0.375,-3.375 -15.374,-12.375 -19.124,-12.75 -3.75,-0.375 -5.625,6 -10.875,6.375 -5.25,0.375 -28.125,-13.875 -33,-17.625 -4.875,-3.75 -7.125,-12.75 -13.875,-19.5 -6.75,-6.75 -7.5,-1.5 -18,-5.625 C 455.75,525.875 422,513.5 396.125,503 370.25,492.5 368,477.781 367.625,467.375 367.25,456.969 351.875,441.875 344.664,431 c -7.209,-10.875 -8.539,-25.875 -11.164,-22.5 -2.625,3.375 13.5,42.75 10.875,43.875 -2.625,1.125 -8.25,-10.875 -15.75,-20.625 -7.5,-9.75 7.875,-4.5 -16.125,-51.75 -24,-47.25 7.5,-71.344 9,-96 1.5,-24.656 20.25,9 10.5,-6.75 -9.75,-15.75 0.75,-48.75 -6.75,-60.75 -7.5,-12 -50.25,13.5 -50.25,13.5 1.125,-11.625 37.5,-31.5 63.75,-49.875 26.25,-18.375 42.281,-4.125 63.375,2.625 21.094,6.75 22.5,4.5 15.375,-2.25 -7.125,-6.75 3,-10.125 19.5,-7.5 16.5,2.625 21,22.5 46.125,20.625 25.125,-1.875 2.625,4.875 6,11.25 3.375,6.375 -3.75,5.625 -20.25,16.875 -16.5,11.25 0.375,11.25 29.625,32.625 29.25,21.375 20.25,-14.25 17.25,-30 -3,-15.75 21.375,-3.375 21.375,-3.375 18,12 14.674,0.66 27.799,4.785 13.125,4.125 48.701,34.215 48.701,34.215 -44.625,24.375 -16.5,27 -9,32.625 7.5,5.625 -15.375,16.5 -15.375,16.5 -9.375,-9.375 -10.875,0.375 -16.875,3.75 -6,3.375 -0.375,12 -0.375,12 -31.031,4.875 -24,37.5 -23.625,45.375 0.375,7.875 -19.875,19.875 -25.125,31.125 -5.25,11.25 13.5,35.625 3.75,37.125 -9.75,1.5 -19.5,-36.75 -72,-22.5 -15.828,4.297 -51,22.5 -32.25,59.625 18.75,37.125 49.875,-10.5 60.375,-5.25 10.5,5.25 -3,28.875 -0.75,29.25 2.25,0.375 29.625,1.031 31.125,33 1.5,31.969 41.625,29.25 50.25,30 8.625,0.75 37.5,-23.625 41.625,-24.75 4.125,-1.125 20.625,-15 56.625,5.625 36,20.625 54.375,17.625 66.75,26.25 12.375,8.625 3.75,25.875 15.375,31.5 11.625,5.625 58.125,-1.875 69.75,17.25 11.625,19.125 -48,115.125 -66.75,125.625 -18.75,10.5 -27.375,34.5 -46.125,49.875 -18.75,15.375 -45,34.406 -69.75,49.125 -21.908,13.027 -25.85,36.365 -35.609,43.732 C 767.496,848.68 896,695.35 896,512 896,299.923 724.077,128 512,128 Z m 90,360.375 c -5.25,1.5 -16.125,11.25 -42.75,-4.5 -26.625,-15.75 -45,-12.75 -47.25,-15.375 0,0 -2.25,-6.375 9.375,-7.5 23.871,-2.311 54,22.125 60.75,22.5 6.75,0.375 10.125,-6.75 22.125,-2.883 12,3.863 3,6.258 -2.25,7.758 z M 476.375,166.25 c -2.615,-1.902 2.166,-4.092 5.016,-7.875 1.645,-2.186 0.425,-5.815 2.484,-7.875 5.625,-5.625 33.375,-13.5 27.949,1.875 C 506.4,167.75 480.5,169.25 476.375,166.25 Z M 543.5,215 c -9.375,-0.375 -31.443,-2.707 -27.375,-6.75 15.844,-15.75 -6,-20.25 -19.5,-21.375 -13.5,-1.125 -19.125,-8.625 -12.375,-9.375 6.75,-0.75 33.75,0.375 38.25,4.125 4.5,3.75 28.875,13.5 30.375,20.625 1.5,7.125 0,13.125 -9.375,12.75 z m 81.375,-2.625 c -7.5,6 -45.24,-21.529 -52.5,-27.75 -31.5,-27 -48.375,-18 -54.99,-22.5 -6.617,-4.5 -4.26,-10.5 5.865,-19.5 10.125,-9 38.625,3 55.125,4.875 16.5,1.875 35.625,14.625 36,29.781 0.375,15.155 18,29.094 10.5,35.094 z"
     id="path4186"
     inkscape:connector-curvature="0"
     style="fill:#91ded8" />
  <path
     inkscape:connector-curvature="0"
     style="fill:#ffffff;fill-opacity:1"
     d="m 587.812,888.51 c -9.879,-4.725 -10.957,-40.174 -1.188,-60.385 10.875,-22.5 45,-79.5 11.25,-98.625 -33.75,-19.125 -24.375,-27.75 -45,-49.875 -20.625,-22.125 -12.19,-25.451 -13.5,-31.125 -4.5,-19.5 19.875,-48.75 21,-51.75 1.125,-3 1.125,-14.25 0.75,-17.625 -0.375,-3.375 -15.374,-12.375 -19.124,-12.75 -3.75,-0.375 -5.625,6 -10.875,6.375 -5.25,0.375 -28.125,-13.875 -33,-17.625 -4.875,-3.75 -7.125,-12.75 -13.875,-19.5 -6.75,-6.75 -7.5,-1.5 -18,-5.625 C 455.75,525.875 422,513.5 396.125,503 370.25,492.5 368,477.781 367.625,467.375 367.25,456.969 351.875,441.875 344.664,431 c -7.209,-10.875 -8.539,-25.875 -11.164,-22.5 -2.625,3.375 13.5,42.75 10.875,43.875 -2.625,1.125 -8.25,-10.875 -15.75,-20.625 -7.5,-9.75 7.875,-4.5 -16.125,-51.75 -24,-47.25 7.5,-71.344 9,-96 1.5,-24.656 20.25,9 10.5,-6.75 -9.75,-15.75 0.75,-48.75 -6.75,-60.75 -7.5,-12 -50.25,13.5 -50.25,13.5 1.125,-11.625 37.5,-31.5 63.75,-49.875 26.25,-18.375 42.281,-4.125 63.375,2.625 21.094,6.75 22.5,4.5 15.375,-2.25 -7.125,-6.75 3,-10.125 19.5,-7.5 16.5,2.625 21,22.5 46.125,20.625 25.125,-1.875 2.625,4.875 6,11.25 3.375,6.375 -3.75,5.625 -20.25,16.875 -16.5,11.25 0.375,11.25 29.625,32.625 29.25,21.375 20.25,-14.25 17.25,-30 -3,-15.75 21.375,-3.375 21.375,-3.375 18,12 14.674,0.66 27.799,4.785 13.125,4.125 48.701,34.215 48.701,34.215 -44.625,24.375 -16.5,27 -9,32.625 7.5,5.625 -15.375,16.5 -15.375,16.5 -9.375,-9.375 -10.875,0.375 -16.875,3.75 -6,3.375 -0.375,12 -0.375,12 -31.031,4.875 -24,37.5 -23.625,45.375 0.375,7.875 -19.875,19.875 -25.125,31.125 -5.25,11.25 13.5,35.625 3.75,37.125 -9.75,1.5 -19.5,-36.75 -72,-22.5 -15.828,4.297 -51,22.5 -32.25,59.625 18.75,37.125 49.875,-10.5 60.375,-5.25 10.5,5.25 -3,28.875 -0.75,29.25 2.25,0.375 29.625,1.031 31.125,33 1.5,31.969 41.625,29.25 50.25,30 8.625,0.75 37.5,-23.625 41.625,-24.75 4.125,-1.125 20.625,-15 56.625,5.625 36,20.625 54.375,17.625 66.75,26.25 12.375,8.625 3.75,25.875 15.375,31.5 11.625,5.625 58.125,-1.875 69.75,17.25 11.625,19.125 -48,115.125 -66.75,125.625 -18.75,10.5 -27.375,34.5 -46.125,49.875 -18.75,15.375 -45,34.406 -69.75,49.125 -21.908,13.027 -25.85,36.365 -35.609,43.732 -7.829,1.653 0,0 -7.829,1.653 z M 602,488.375 c -5.25,1.5 -16.125,11.25 -42.75,-4.5 -26.625,-15.75 -45,-12.75 -47.25,-15.375 0,0 -2.25,-6.375 9.375,-7.5 23.871,-2.311 54,22.125 60.75,22.5 6.75,0.375 10.125,-6.75 22.125,-2.883 12,3.863 3,6.258 -2.25,7.758 z M 476.375,166.25 c -2.615,-1.902 2.166,-4.092 5.016,-7.875 1.645,-2.186 0.425,-5.815 2.484,-7.875 5.625,-5.625 33.375,-13.5 27.949,1.875 C 506.4,167.75 480.5,169.25 476.375,166.25 Z M 543.5,215 c -9.375,-0.375 -31.443,-2.707 -27.375,-6.75 15.844,-15.75 -6,-20.25 -19.5,-21.375 -13.5,-1.125 -19.125,-8.625 -12.375,-9.375 6.75,-0.75 33.75,0.375 38.25,4.125 4.5,3.75 28.875,13.5 30.375,20.625 1.5,7.125 0,13.125 -9.375,12.75 z m 81.375,-2.625 c -7.5,6 -45.24,-21.529 -52.5,-27.75 -31.5,-27 -48.375,-18 -54.99,-22.5 -6.617,-4.5 -4.26,-10.5 5.865,-19.5 10.125,-9 38.625,3 55.125,4.875 16.5,1.875 35.625,14.625 36,29.781 0.375,15.155 18,29.094 10.5,35.094 z"
     id="path4186-7"
     sodipodi:nodetypes="ccsscssssssssscssssssscssssssssscscscscssscsssssssssssscccssccscscccccscssssssccssss" />
</svg>
